Coordinates
version=1
nRows=49
nColumns=12
inDegrees=yes

Units are S.I. units (second, meters, Newtons, ...)
Angles are in degrees

endheader
time	SC_y	SC_z	SC_x	AC_y	AC_z	AC_x	GH_y	GH_z	GH_yy	EL_x	PS_y
       0.0              -20.62          31.32          66.95          69.81         0.2955         -4.781          95.69          47.72          104.6          36.49          81.72
  0.007722              -20.63          31.32          66.94           69.8         0.2957         -4.779          95.66          47.72          104.6           36.5          81.71
   0.01544              -20.63          31.32          66.94           69.8         0.2959         -4.778          95.64          47.72          104.5           36.5           81.7
   0.02317              -20.64          31.33          66.93          69.79         0.2961         -4.776          95.61          47.72          104.5          36.51           81.7
   0.03089              -20.65          31.33          66.92          69.79         0.2963         -4.774          95.57          47.72          104.5          36.51          81.69
   0.03861              -20.65          31.33          66.92          69.78         0.2966         -4.772          95.54          47.72          104.5          36.52          81.68
   0.04633              -20.66          31.33          66.91          69.77         0.2968         -4.769           95.5          47.72          104.5          36.52          81.67
   0.05405              -20.67          31.33           66.9          69.77         0.2971         -4.767          95.46          47.72          104.4          36.53          81.66
   0.06178              -20.68          31.33          66.89          69.76         0.2974         -4.765          95.42          47.71          104.4          36.54          81.64
    0.0695              -20.69          31.34          66.88          69.75         0.2977         -4.762          95.38          47.71          104.4          36.54          81.63
   0.07722               -20.7          31.34          66.87          69.74          0.298         -4.759          95.33          47.71          104.3          36.55          81.62
   0.08494              -20.71          31.34          66.86          69.73         0.2984         -4.756          95.28          47.71          104.3          36.56           81.6
   0.09266              -20.72          31.34          66.85          69.72         0.2988         -4.752          95.22          47.71          104.3          36.57          81.59
    0.1004              -20.73          31.34          66.84          69.71         0.2992         -4.749          95.16          47.71          104.2          36.58          81.57
    0.1081              -20.74          31.35          66.83           69.7         0.2996         -4.745           95.1          47.71          104.2          36.59          81.55
    0.1158              -20.76          31.35          66.81          69.69         0.3001          -4.74          95.03          47.71          104.2           36.6          81.53
    0.1236              -20.77          31.35          66.79          69.67         0.3007         -4.736          94.95          47.71          104.1          36.61          81.51
    0.1313              -20.79          31.36          66.78          69.66         0.3013          -4.73          94.87           47.7          104.1          36.63          81.49
     0.139              -20.81          31.36          66.76          69.64         0.3019         -4.725          94.78           47.7          104.0          36.64          81.46
    0.1467              -20.83          31.36          66.74          69.62         0.3026         -4.719          94.68           47.7          103.9          36.66          81.43
    0.1544              -20.85          31.37          66.72           69.6         0.3033         -4.712          94.57           47.7          103.9          36.68           81.4
    0.1622              -20.88          31.37          66.69          69.58         0.3042         -4.705          94.45           47.7          103.8           36.7          81.37
    0.1699               -20.9          31.38          66.66          69.56         0.3051         -4.697          94.31          47.69          103.7          36.72          81.33
    0.1776              -20.93          31.38          66.63          69.53         0.3061         -4.688          94.16          47.69          103.6          36.74          81.29
    0.1853              -20.97          31.39           66.6           69.5         0.3073         -4.677           94.0          47.69          103.5          36.77          81.24
     0.193               -21.0           31.4          66.56          69.46         0.3086         -4.666          93.82          47.68          103.4           36.8          81.19
    0.2008              -21.05          31.41          66.52          69.43           0.31         -4.654          93.61          47.68          103.3          36.84          81.13
    0.2085              -21.09          31.42          66.47          69.38         0.3116          -4.64          93.38          47.68          103.1          36.87          81.06
    0.2162              -21.15          31.43          66.42          69.34         0.3134         -4.624          93.12          47.67          103.0          36.92          80.99
    0.2239              -21.21          31.44          66.36          69.28         0.3155         -4.605          92.82          47.67          102.8          36.97          80.91
    0.2317              -21.27          31.45          66.29          69.22         0.3178         -4.585          92.49          47.66          102.6          37.02          80.81
    0.2394              -21.35          31.47          66.21          69.15         0.3205         -4.561           92.1          47.65          102.4          37.09           80.7
    0.2471              -21.44          31.49          66.12          69.07         0.3236         -4.534          91.65          47.64          102.1          37.16          80.57
    0.2548              -21.55          31.51          66.01          68.97         0.3273         -4.502          91.13          47.64          101.8          37.25          80.43
    0.2625              -21.67          31.53          65.89          68.86         0.3315         -4.465          90.52          47.62          101.4          37.35          80.25
    0.2703              -21.82          31.56          65.74          68.73         0.3365         -4.421           89.8          47.61          101.0          37.46          80.05
     0.278              -21.99          31.59          65.56          68.57         0.3424         -4.368          88.95           47.6          100.4           37.6          79.81
    0.2857               -22.2          31.64          65.35          68.38         0.3495         -4.306          87.93          47.58           99.8          37.77          79.52
    0.2934              -22.45          31.69           65.1          68.16         0.3582          -4.23          86.69          47.55          99.04          37.98          79.17
    0.3012              -22.76          31.75          64.79          67.88         0.3687         -4.138          85.18          47.53          98.11          38.23          78.74
    0.3089              -23.14          31.82          64.41          67.54         0.3816         -4.023          83.31          47.49          96.96          38.53          78.21
    0.3166              -23.61          31.92          63.93          67.11         0.3978         -3.881          80.99          47.45          95.53          38.92          77.55
    0.3243              -24.21          32.03          63.33          66.57         0.4182         -3.702          78.06          47.39          93.73           39.4          76.72
     0.332              -24.96          32.18          62.57          65.89         0.4441         -3.474          74.33          47.33          91.44          40.02          75.67
    0.3398              -25.93          32.38          61.59          65.02         0.4773         -3.182          69.57          47.24          88.51           40.8          74.31
    0.3475              -27.18          32.62          60.33          63.89         0.5199         -2.808          63.45          47.13          84.75          41.81          72.58
    0.3552              -28.76          32.94          58.73          62.46         0.5743         -2.329          55.63          46.98          79.95           43.1          70.37
    0.3629              -30.76          33.33          56.71          60.66         0.6426         -1.728          45.81           46.8          73.91          44.72          67.58
    0.3707              -33.19          33.82          54.26          58.46          0.726        -0.9951          33.83          46.58          66.55           46.7          64.19
